<svg xmlns="http://www.w3.org/2000/svg" version="1.1" xmlns:xlink="http://www.w3.org/1999/xlink" xmlns:svgjs="http://svgjs.dev/svgjs" width="1500" height="1500" viewBox="0 0 1500 1500"><rect width="1500" height="1500" fill="#ffffff"></rect><g transform="matrix(0.6666666666666666,0,0,0.6666666666666666,250.09317835234117,486.33333333333337)"><svg viewBox="0 0 379 200" data-background-color="#ffffff" preserveAspectRatio="xMidYMid meet" height="791" width="1500" xmlns="http://www.w3.org/2000/svg" xmlns:xlink="http://www.w3.org/1999/xlink"><g id="tight-bounds" transform="matrix(1,0,0,1,-0.035314595537300875,0)"><svg viewBox="0 0 379.0706291910746 200" height="200" width="379.0706291910746"><g><svg viewBox="0 0 435.2022085556505 229.6153671859827" height="200" width="379.0706291910746"><g><rect width="5.531780898513206" height="229.6153671859827" x="167.5328215022398" y="0" fill="#152232" opacity="1" stroke-width="0" stroke="transparent" fill-opacity="1" class="rect-qz-0" data-fill-palette-color="primary" rx="1%" id="qz-0" data-palette-color="#152232"></rect></g><g transform="matrix(1,0,0,1,187.54570422932161,0.5711825054377613)"><svg viewBox="0 0 247.65650432632881 228.47300217510718" height="228.47300217510718" width="247.65650432632881"><g id="textblocktransform"><svg viewBox="0 0 247.65650432632881 228.47300217510718" height="228.47300217510718" width="247.65650432632881" id="textblock"><g><svg viewBox="0 0 247.65650432632881 198.764" height="198.764" width="247.65650432632881"><g transform="matrix(1,0,0,1,0,0)"><svg width="247.65650432632881" viewBox="2.850000000000001 -34.9 151.2 116.25" height="198.764" data-palette-color="#152232"><svg></svg><svg></svg><svg></svg><g class="wordmark-text-0" data-fill-palette-color="primary" id="text-0"><path d="M31.25-34.9v34.9h-4.55l-18.3-27.75v27.75h-4.55v-34.9h4.55l18.3 27.7v-27.7zM58.75-27.4h4.55v27.4h-4.55v-4.05c-0.867 1.4-2.073 2.49-3.62 3.27-1.553 0.787-3.263 1.18-5.13 1.18v0c-2.133 0-4.05-0.443-5.75-1.33-1.7-0.88-3.04-2.203-4.02-3.97-0.987-1.767-1.48-3.917-1.48-6.45v0-16.05h4.5v15.45c0 2.7 0.683 4.773 2.05 6.22 1.367 1.453 3.233 2.18 5.6 2.18v0c2.433 0 4.35-0.75 5.75-2.25 1.4-1.5 2.1-3.683 2.1-6.55v0zM75.55-22.95c0.8-1.567 1.943-2.783 3.43-3.65 1.48-0.867 3.287-1.3 5.42-1.3v0 4.7h-1.2c-5.1 0-7.65 2.767-7.65 8.3v0 14.9h-4.55v-27.4h4.55z" fill="#152232" fill-rule="nonzero" stroke="none" stroke-width="1" stroke-linecap="butt" stroke-linejoin="miter" stroke-miterlimit="10" stroke-dasharray="" stroke-dashoffset="0" font-family="none" font-weight="none" font-size="none" text-anchor="none" style="mix-blend-mode: normal" data-fill-palette-color="primary" opacity="1"></path><path transform="translate(0,40.45)" d="M14.9 0.35c-2.3 0-4.36-0.41-6.18-1.23-1.813-0.813-3.237-1.947-4.27-3.4-1.033-1.447-1.567-3.12-1.6-5.02v0h4.85c0.167 1.633 0.843 3.007 2.03 4.12 1.18 1.12 2.903 1.68 5.17 1.68v0c2.167 0 3.877-0.543 5.13-1.63 1.247-1.08 1.87-2.47 1.87-4.17v0c0-1.333-0.367-2.417-1.1-3.25-0.733-0.833-1.65-1.467-2.75-1.9-1.1-0.433-2.583-0.9-4.45-1.4v0c-2.3-0.6-4.14-1.2-5.52-1.8-1.387-0.6-2.57-1.543-3.55-2.83-0.987-1.28-1.48-3.003-1.48-5.17v0c0-1.9 0.483-3.583 1.45-5.05 0.967-1.467 2.327-2.6 4.08-3.4 1.747-0.8 3.753-1.2 6.02-1.2v0c3.267 0 5.943 0.817 8.03 2.45 2.08 1.633 3.253 3.8 3.52 6.5v0h-5c-0.167-1.333-0.867-2.51-2.1-3.53-1.233-1.013-2.867-1.52-4.9-1.52v0c-1.9 0-3.45 0.49-4.65 1.47-1.2 0.987-1.8 2.363-1.8 4.13v0c0 1.267 0.36 2.3 1.08 3.1 0.713 0.8 1.597 1.407 2.65 1.82 1.047 0.42 2.52 0.897 4.42 1.43v0c2.3 0.633 4.15 1.26 5.55 1.88 1.4 0.613 2.6 1.56 3.6 2.84 1 1.287 1.5 3.03 1.5 5.23v0c0 1.7-0.45 3.3-1.35 4.8-0.9 1.5-2.233 2.717-4 3.65-1.767 0.933-3.85 1.4-6.25 1.4zM52.95-27.4h4.55v27.4h-4.55v-4.05c-0.867 1.4-2.073 2.49-3.62 3.27-1.553 0.787-3.263 1.18-5.13 1.18v0c-2.133 0-4.05-0.443-5.75-1.33-1.7-0.88-3.04-2.203-4.02-3.97-0.987-1.767-1.48-3.917-1.48-6.45v0-16.05h4.5v15.45c0 2.7 0.683 4.773 2.05 6.22 1.367 1.453 3.233 2.18 5.6 2.18v0c2.433 0 4.35-0.75 5.75-2.25 1.4-1.5 2.1-3.683 2.1-6.55v0zM65.2-37h4.55v37h-4.55zM90.2-23.65h-7.15v16.15c0 1.333 0.283 2.277 0.85 2.83 0.567 0.547 1.55 0.82 2.95 0.82v0h3.35v3.85h-4.1c-2.533 0-4.433-0.583-5.7-1.75-1.267-1.167-1.9-3.083-1.9-5.75v0-16.15h-3.55v-3.75h3.55v-6.9h4.55v6.9h7.15zM94-13.8c0-2.8 0.567-5.26 1.7-7.38 1.133-2.113 2.693-3.753 4.68-4.92 1.98-1.167 4.187-1.75 6.62-1.75v0c2.4 0 4.483 0.517 6.25 1.55 1.767 1.033 3.083 2.333 3.95 3.9v0-5h4.6v27.4h-4.6v-5.1c-0.9 1.6-2.24 2.923-4.02 3.97-1.787 1.053-3.863 1.58-6.23 1.58v0c-2.433 0-4.633-0.6-6.6-1.8-1.967-1.2-3.517-2.883-4.65-5.05-1.133-2.167-1.7-4.633-1.7-7.4zM117.2-13.75c0-2.067-0.417-3.867-1.25-5.4-0.833-1.533-1.957-2.71-3.37-3.53-1.42-0.813-2.98-1.22-4.68-1.22v0c-1.7 0-3.25 0.4-4.65 1.2-1.4 0.8-2.517 1.967-3.35 3.5-0.833 1.533-1.25 3.333-1.25 5.4v0c0 2.1 0.417 3.923 1.25 5.47 0.833 1.553 1.95 2.737 3.35 3.55 1.4 0.82 2.95 1.23 4.65 1.23v0c1.7 0 3.26-0.41 4.68-1.23 1.413-0.813 2.537-1.997 3.37-3.55 0.833-1.547 1.25-3.353 1.25-5.42zM142.85-27.9c3.333 0 6.033 1.007 8.1 3.02 2.067 2.02 3.1 4.93 3.1 8.73v0 16.15h-4.5v-15.5c0-2.733-0.683-4.827-2.05-6.28-1.367-1.447-3.233-2.17-5.6-2.17v0c-2.4 0-4.307 0.75-5.72 2.25-1.42 1.5-2.13 3.683-2.13 6.55v0 15.15h-4.55v-27.4h4.55v3.9c0.9-1.4 2.123-2.483 3.67-3.25 1.553-0.767 3.263-1.15 5.13-1.15z" fill="#152232" fill-rule="nonzero" stroke="none" stroke-width="1" stroke-linecap="butt" stroke-linejoin="miter" stroke-miterlimit="10" stroke-dasharray="" stroke-dashoffset="0" font-family="none" font-weight="none" font-size="none" text-anchor="none" style="mix-blend-mode: normal" data-fill-palette-color="primary" opacity="1"></path><path transform="translate(0,80.9)" d="M21.3-17.95c1.267 0.2 2.427 0.717 3.48 1.55 1.047 0.833 1.88 1.867 2.5 3.1 0.613 1.233 0.92 2.55 0.92 3.95v0c0 1.767-0.45 3.357-1.35 4.77-0.9 1.42-2.207 2.537-3.92 3.35-1.72 0.82-3.747 1.23-6.08 1.23v0h-13v-34.85h12.5c2.367 0 4.383 0.39 6.05 1.17 1.667 0.787 2.917 1.847 3.75 3.18 0.833 1.333 1.25 2.833 1.25 4.5v0c0 2.067-0.557 3.773-1.67 5.12-1.12 1.353-2.597 2.33-4.43 2.93zM8.4-31.1v11.3h7.65c2.133 0 3.783-0.5 4.95-1.5 1.167-1 1.75-2.383 1.75-4.15v0c0-1.767-0.583-3.15-1.75-4.15-1.167-1-2.85-1.5-5.05-1.5v0zM16.45-3.75c2.267 0 4.033-0.533 5.3-1.6 1.267-1.067 1.9-2.55 1.9-4.45v0c0-1.933-0.667-3.46-2-4.58-1.333-1.113-3.117-1.67-5.35-1.67v0h-7.9v12.3zM32.8-13.8c0-2.8 0.567-5.26 1.7-7.38 1.133-2.113 2.693-3.753 4.68-4.92 1.98-1.167 4.187-1.75 6.62-1.75v0c2.4 0 4.483 0.517 6.25 1.55 1.767 1.033 3.083 2.333 3.95 3.9v0-5h4.6v27.4h-4.6v-5.1c-0.9 1.6-2.24 2.923-4.02 3.97-1.787 1.053-3.863 1.58-6.23 1.58v0c-2.433 0-4.633-0.6-6.6-1.8-1.967-1.2-3.517-2.883-4.65-5.05-1.133-2.167-1.7-4.633-1.7-7.4zM56-13.75c0-2.067-0.417-3.867-1.25-5.4-0.833-1.533-1.957-2.71-3.37-3.53-1.42-0.813-2.98-1.22-4.68-1.22v0c-1.7 0-3.25 0.4-4.65 1.2-1.4 0.8-2.517 1.967-3.35 3.5-0.833 1.533-1.25 3.333-1.25 5.4v0c0 2.1 0.417 3.923 1.25 5.47 0.833 1.553 1.95 2.737 3.35 3.55 1.4 0.82 2.95 1.23 4.65 1.23v0c1.7 0 3.26-0.41 4.68-1.23 1.413-0.813 2.537-1.997 3.37-3.55 0.833-1.547 1.25-3.353 1.25-5.42zM81.65-27.9c3.333 0 6.033 1.007 8.1 3.02 2.067 2.02 3.1 4.93 3.1 8.73v0 16.15h-4.5v-15.5c0-2.733-0.683-4.827-2.05-6.28-1.367-1.447-3.233-2.17-5.6-2.17v0c-2.4 0-4.307 0.75-5.72 2.25-1.42 1.5-2.13 3.683-2.13 6.55v0 15.15h-4.55v-27.4h4.55v3.9c0.9-1.4 2.127-2.483 3.68-3.25 1.547-0.767 3.253-1.15 5.12-1.15zM121.8 0h-6.2l-10.75-12.1v12.1h-4.55v-37h4.55v21.75l10.55-12.15h6.35l-12.9 13.65z" fill="#152232" fill-rule="nonzero" stroke="none" stroke-width="1" stroke-linecap="butt" stroke-linejoin="miter" stroke-miterlimit="10" stroke-dasharray="" stroke-dashoffset="0" font-family="none" font-weight="none" font-size="none" text-anchor="none" style="mix-blend-mode: normal" data-fill-palette-color="primary" opacity="1"></path></g></svg></g></svg></g><g transform="matrix(1,0,0,1,0,213.2451018285686)"><svg viewBox="0 0 145.39913368998762 15.227900346538565" height="15.227900346538565" width="145.39913368998762"><g transform="matrix(1,0,0,1,0,0)"><svg width="145.39913368998762" viewBox="4.15 -35.9 425.8 44.599999999999994" height="15.227900346538565" data-palette-color="#0b8317"><path d="M8.2-33.7L8.2 0 4.15 0 4.15-33.7 8.2-33.7ZM36-17.45L36 0 32.05 0 32.05-16.4Q32.05-19.2 30.62-20.68 29.2-22.15 26.9-22.15L26.9-22.15Q24.05-22.15 21.97-19.95 19.9-17.75 19.9-13.85L19.9-13.85 19.9 0 16 0 16-25.35 19.9-25.35 19.9-20.95Q22.15-25.7 27.9-25.7L27.9-25.7Q31.6-25.7 33.8-23.45 36-21.2 36-17.45L36-17.45ZM63.35-25.35L54.3 0 49.45 0 40.6-25.35 44.7-25.35 48.2-14.65 51.9-3.1Q52.35-5.25 55.65-14.65L55.65-14.65 59.25-25.35 63.35-25.35ZM86.74-5L86.74-1.3Q83.79 0.25 79.54 0.25L79.54 0.25Q73.79 0.25 70.27-3.28 66.74-6.8 66.74-12.6L66.74-12.6Q66.74-18.65 69.89-22.15 73.04-25.65 77.99-25.65L77.99-25.65Q82.74-25.65 85.54-22.6 88.34-19.55 88.34-13.95L88.34-13.95Q88.34-12.35 88.09-11L88.09-11 70.79-11Q71.24-7.25 73.64-5.25 76.04-3.25 79.94-3.25L79.94-3.25Q84.19-3.25 86.74-5L86.74-5ZM77.99-22.2L77.99-22.2Q75.14-22.2 73.14-20.15 71.14-18.1 70.79-14.3L70.79-14.3 84.39-14.3 84.39-15.3Q84.39-18.45 82.69-20.33 80.99-22.2 77.99-22.2ZM109.59-6.75L109.59-6.75Q109.59-3.5 107.31-1.6 105.04 0.3 101.09 0.3L101.09 0.3Q96.49 0.3 93.64-1.25L93.64-1.25 93.64-5.1Q96.99-3.1 100.84-3.1L100.84-3.1Q103.14-3.1 104.34-4 105.54-4.9 105.54-6.45L105.54-6.45Q105.54-8.25 104.22-9.25 102.89-10.25 99.79-11.5L99.79-11.5Q96.94-12.6 95.22-14.25 93.49-15.9 93.49-18.7L93.49-18.7Q93.49-21.85 95.86-23.73 98.24-25.6 101.79-25.6L101.79-25.6Q105.74-25.6 108.14-24.5L108.14-24.5 108.14-20.75Q105.84-22.15 101.84-22.15L101.84-22.15Q99.84-22.15 98.66-21.23 97.49-20.3 97.49-18.85L97.49-18.85Q97.49-17.95 97.84-17.28 98.19-16.6 99.22-15.95 100.24-15.3 100.72-15.08 101.19-14.85 102.79-14.15L102.79-14.15Q105.99-12.85 107.79-11.2 109.59-9.55 109.59-6.75ZM127.64-4.4L127.64-0.65Q125.99 0.25 123.94 0.25L123.94 0.25Q116.44 0.25 116.44-7.4L116.44-7.4 116.44-22.15 112.39-22.15 112.39-25.35 116.44-25.35 116.44-31.65 120.39-31.65 120.39-25.35 127.39-25.35 127.39-22.15 120.39-22.15 120.39-7.3Q120.39-3.25 124.19-3.25L124.19-3.25Q126.14-3.25 127.64-4.4L127.64-4.4ZM149.73-25.35L149.73 0 145.78 0 145.78-25.35 149.73-25.35ZM149.58-35.15Q150.33-34.4 150.33-33.3 150.33-32.2 149.58-31.48 148.83-30.75 147.73-30.75 146.63-30.75 145.91-31.48 145.18-32.2 145.18-33.3 145.18-34.4 145.91-35.15 146.63-35.9 147.73-35.9 148.83-35.9 149.58-35.15ZM177.23-17.45L177.23 0 173.28 0 173.28-16.4Q173.28-19.2 171.85-20.68 170.43-22.15 168.13-22.15L168.13-22.15Q165.28-22.15 163.2-19.95 161.13-17.75 161.13-13.85L161.13-13.85 161.13 0 157.23 0 157.23-25.35 161.13-25.35 161.13-20.95Q163.38-25.7 169.13-25.7L169.13-25.7Q172.83-25.7 175.03-23.45 177.23-21.2 177.23-17.45L177.23-17.45ZM216.57-25.35L207.42-0.65Q205.47 4.5 202.8 6.6 200.12 8.7 196.67 8.7L196.67 8.7Q195.37 8.7 194.57 8.45L194.57 8.45 194.57 4.9Q195.32 5.1 196.27 5.1L196.27 5.1Q201.32 5.1 203.42-0.65L203.42-0.65 193.17-25.35 197.62-25.35 200.92-17 205.37-5.5Q205.77-6.8 209.37-17L209.37-17 212.32-25.35 216.57-25.35ZM243.37-12.6L243.37-12.6Q243.37-6.95 240.17-3.25 236.97 0.45 231.37 0.45L231.37 0.45Q225.92 0.45 222.75-3.23 219.57-6.9 219.57-12.5L219.57-12.5Q219.57-18.15 222.85-21.93 226.12-25.7 231.37-25.7L231.37-25.7Q237.12-25.7 240.25-22 243.37-18.3 243.37-12.6ZM223.67-12.55L223.67-12.55Q223.67-8.6 225.77-5.83 227.87-3.05 231.37-3.05L231.37-3.05Q235.17-3.05 237.22-5.78 239.27-8.5 239.27-12.55L239.27-12.55Q239.27-16.75 237.32-19.48 235.37-22.2 231.37-22.2L231.37-22.2Q227.77-22.2 225.72-19.4 223.67-16.6 223.67-12.55ZM268.87-25.35L268.87 0 264.92 0 264.92-4.4Q262.92 0.3 256.97 0.3L256.97 0.3Q253.22 0.3 251.04-1.93 248.87-4.15 248.87-7.9L248.87-7.9 248.87-25.35 252.82-25.35 252.82-8.9Q252.82-6.15 254.22-4.7 255.62-3.25 258.02-3.25L258.02-3.25Q261.17-3.25 263.04-5.45 264.92-7.65 264.92-11.4L264.92-11.4 264.92-25.35 268.87-25.35ZM280.07-13.85L280.07 0 276.12 0 276.17-25.35 280.07-25.35 280.07-20.9Q282.07-25.6 286.97-25.6L286.97-25.6Q287.87-25.6 288.37-25.5L288.37-25.5 288.37-21.6Q287.32-21.95 286.22-21.95L286.22-21.95Q283.57-21.95 281.82-19.5 280.07-17.05 280.07-13.85L280.07-13.85ZM316.41-25.35L316.41-22.15 310.81-22.15 310.81 0 306.86 0 306.86-22.15 302.51-22.15 302.51-25.35 306.86-25.35 306.86-27.7Q306.86-31.4 308.84-33.55 310.81-35.7 314.31-35.7L314.31-35.7Q315.51-35.7 316.76-35.35L316.76-35.35 316.76-31.75Q315.56-32.15 314.46-32.15L314.46-32.15Q312.86-32.15 311.84-31.05 310.81-29.95 310.81-27.65L310.81-27.65 310.81-25.35 316.41-25.35ZM340.81-25.35L340.81 0 336.86 0 336.86-4.4Q334.86 0.3 328.91 0.3L328.91 0.3Q325.16 0.3 322.98-1.93 320.81-4.15 320.81-7.9L320.81-7.9 320.81-25.35 324.76-25.35 324.76-8.9Q324.76-6.15 326.16-4.7 327.56-3.25 329.96-3.25L329.96-3.25Q333.11-3.25 334.98-5.45 336.86-7.65 336.86-11.4L336.86-11.4 336.86-25.35 340.81-25.35ZM360.81-4.4L360.81-0.65Q359.16 0.25 357.11 0.25L357.11 0.25Q349.61 0.25 349.61-7.4L349.61-7.4 349.61-22.15 345.56-22.15 345.56-25.35 349.61-25.35 349.61-31.65 353.56-31.65 353.56-25.35 360.56-25.35 360.56-22.15 353.56-22.15 353.56-7.3Q353.56-3.25 357.36-3.25L357.36-3.25Q359.31-3.25 360.81-4.4L360.81-4.4ZM386.25-25.35L386.25 0 382.3 0 382.3-4.4Q380.3 0.3 374.35 0.3L374.35 0.3Q370.6 0.3 368.43-1.93 366.25-4.15 366.25-7.9L366.25-7.9 366.25-25.35 370.2-25.35 370.2-8.9Q370.2-6.15 371.6-4.7 373-3.25 375.4-3.25L375.4-3.25Q378.55-3.25 380.43-5.45 382.3-7.65 382.3-11.4L382.3-11.4 382.3-25.35 386.25-25.35ZM397.45-13.85L397.45 0 393.5 0 393.55-25.35 397.45-25.35 397.45-20.9Q399.45-25.6 404.35-25.6L404.35-25.6Q405.25-25.6 405.75-25.5L405.75-25.5 405.75-21.6Q404.7-21.95 403.6-21.95L403.6-21.95Q400.95-21.95 399.2-19.5 397.45-17.05 397.45-13.85L397.45-13.85ZM428.35-5L428.35-1.3Q425.4 0.25 421.15 0.25L421.15 0.25Q415.4 0.25 411.88-3.28 408.35-6.8 408.35-12.6L408.35-12.6Q408.35-18.65 411.5-22.15 414.65-25.65 419.6-25.65L419.6-25.65Q424.35-25.65 427.15-22.6 429.95-19.55 429.95-13.95L429.95-13.95Q429.95-12.35 429.7-11L429.7-11 412.4-11Q412.85-7.25 415.25-5.25 417.65-3.25 421.55-3.25L421.55-3.25Q425.8-3.25 428.35-5L428.35-5ZM419.6-22.2L419.6-22.2Q416.75-22.2 414.75-20.15 412.75-18.1 412.4-14.3L412.4-14.3 426-14.3 426-15.3Q426-18.45 424.3-20.33 422.6-22.2 419.6-22.2Z" opacity="1" transform="matrix(1,0,0,1,0,0)" fill="#0b8317" class="slogan-text-1" data-fill-palette-color="secondary" id="text-1"></path></svg></g></svg></g></svg></g></svg></g><g transform="matrix(1,0,0,1,0,57.34933703098988)"><svg viewBox="0 0 153.05171967367122 114.91669312400295" height="114.91669312400295" width="153.05171967367122"><g><svg xmlns="http://www.w3.org/2000/svg" xmlns:xlink="http://www.w3.org/1999/xlink" version="1.1" x="0" y="0" viewBox="9.204 19.649 81.071 60.87100000000001" enable-background="new 0 0 100 100" xml:space="preserve" height="114.91669312400295" width="153.05171967367122" class="icon-icon-0" data-fill-palette-color="accent" id="icon-0"><path d="M85.941 73.486v-5.033h-3.5V44.108h5.334v-8.421h-5.334v-4.333L49.739 19.649 17.038 31.355v4.333h-5.335v8.421h5.335v24.345h-3.5v5.033H9.204v7.033h81.071v-7.033H85.941zM72.723 49.476v18.978h-1.312V47.766h3.625v20.688h-1.312V49.476H72.723zM61.966 49.476v18.978h-1.313V47.766h3.625v20.688h-1.312V49.476H61.966zM49.739 51.486c-2.767 0-5.01 2.242-5.01 5.01v11.957h-3.904V47.766h1.29v-3.657h15.248v3.657h1.29v20.688h-3.904V56.496C54.749 53.729 52.505 51.486 49.739 51.486zM36.511 49.476v18.978H35.2V47.766h3.625v20.688h-1.313V49.476H36.511zM25.754 49.476v18.978h-1.312V47.766h3.625v20.688h-1.312V49.476H25.754zM20.038 44.108h1.113v3.657h1.291v20.688h-2.404V44.108zM29.358 44.108v1.657h-6.207v-1.657H29.358zM30.067 47.766h1.291v-3.657h0.55v3.657H33.2v20.688h-3.133V47.766zM40.115 44.108v1.657h-6.207v-1.657H40.115zM65.57 44.108v1.657h-6.207v-1.657H65.57zM66.278 47.766h1.292v-3.657h0.55v3.657h1.291v20.688h-3.133V47.766zM76.327 44.108v1.657H70.12v-1.657H76.327zM77.036 47.766h1.291v-3.657h1.114v24.345h-2.405V47.766zM20.038 33.467l29.701-10.632 29.702 10.632v2.22H20.038V33.467zM14.703 41.108v-2.421h70.072v2.421H14.703zM15.538 70.453h6.904 7.625H33.2h7.625 17.828 7.625 3.133 7.625 6.905v3.033H15.538V70.453zM88.275 78.52H11.204v-3.033h2.334 72.403 2.334V78.52z" fill="#5ebc67" data-fill-palette-color="accent"></path></svg></g></svg></g></svg></g><defs></defs></svg><rect width="379.0706291910746" height="200" fill="none" stroke="none" visibility="hidden"></rect></g></svg></g></svg>